<mxfile host="app.diagrams.net" modified="2023-06-02T12:28:06.881Z" agent="Mozilla/5.0 (Windows NT 10.0; Win64; x64) AppleWebKit/537.36 (KHTML, like Gecko) Chrome/113.0.0.0 Safari/537.36" version="21.3.6" etag="qwS0h5mAY6ye16Is7nv5" type="github">
  <diagram name="Page-1" id="544V4_7Nn8nqn4b5fzUd">
    <mxGraphModel>
      <root>
        <mxCell id="0" />
        <mxCell id="1" parent="0" />
      </root>
    </mxGraphModel>
  </diagram>
</mxfile>
